<svg width="102" height="102" viewBox="0 0 102 102" fill="none" xmlns="http://www.w3.org/2000/svg">
<g filter="url(#filter0_di_9_22963)">
<g clip-path="url(#clip0_9_22963)">
<rect x="39.5986" y="7" width="60.9417" height="60.9417" rx="10.1569" transform="rotate(32.3378 39.5986 7)" fill="white"/>
<rect x="41.1729" y="14.0073" width="50.7847" height="50.7847" rx="5.07847" transform="rotate(32.3378 41.1729 14.0073)" fill="#F8DFDD"/>
<g clip-path="url(#clip1_9_22963)">
<path d="M49.0442 49.0441C50.9004 46.1121 54.7822 45.24 57.7142 47.0963C60.6462 48.9525 61.5184 52.8343 59.6621 55.7663C57.8058 58.6984 53.9241 59.5704 50.9921 57.7142C48.06 55.8579 47.1879 51.9762 49.0442 49.0441Z" fill="#1ABCFE"/>
<path d="M31.7043 52.9399C33.5606 50.0079 37.4423 49.1357 40.3744 50.992L45.6833 54.3531L42.3223 59.662C40.466 62.5941 36.5843 63.4662 33.6522 61.6099C30.7202 59.7536 29.8481 55.872 31.7043 52.9399Z" fill="#0ACF83"/>
<path d="M59.127 33.1172L52.4048 43.7351L57.7138 47.0962C60.6459 48.9525 64.5275 48.0804 66.3838 45.1484C68.2401 42.2163 67.368 38.3346 64.4359 36.4783L59.127 33.1172Z" fill="#FF7262"/>
<path d="M45.1487 31.704C43.2924 34.6361 44.1645 38.5178 47.0966 40.3741L52.4055 43.7351L59.1277 33.1172L53.8187 29.7562C50.8867 27.8999 47.005 28.772 45.1487 31.704Z" fill="#F24E1E"/>
<path d="M38.426 42.322C36.5697 45.254 37.4418 49.1357 40.3739 50.992L45.6829 54.3531L52.405 43.7352L47.0961 40.3741C44.164 38.5178 40.2823 39.39 38.426 42.322Z" fill="#A259FF"/>
</g>
</g>
<rect x="39.8311" y="8.03486" width="59.4417" height="59.4417" rx="9.40695" transform="rotate(32.3378 39.8311 8.03486)" stroke="#FFF4F3" stroke-width="1.5"/>
</g>
<defs>
<filter id="filter0_di_9_22963" x="-3" y="-3" width="108.089" height="108.088" filterUnits="userSpaceOnUse" color-interpolation-filters="sRGB">
<feFlood flood-opacity="0" result="BackgroundImageFix"/>
<feColorMatrix in="SourceAlpha" type="matrix" values="0 0 0 0 0 0 0 0 0 0 0 0 0 0 0 0 0 0 127 0" result="hardAlpha"/>
<feOffset dx="2" dy="2"/>
<feGaussianBlur stdDeviation="6"/>
<feComposite in2="hardAlpha" operator="out"/>
<feColorMatrix type="matrix" values="0 0 0 0 0 0 0 0 0 0 0 0 0 0 0 0 0 0 0.08 0"/>
<feBlend mode="normal" in2="BackgroundImageFix" result="effect1_dropShadow_9_22963"/>
<feBlend mode="normal" in="SourceGraphic" in2="effect1_dropShadow_9_22963" result="shape"/>
<feColorMatrix in="SourceAlpha" type="matrix" values="0 0 0 0 0 0 0 0 0 0 0 0 0 0 0 0 0 0 127 0" result="hardAlpha"/>
<feOffset dx="-2" dy="-2"/>
<feGaussianBlur stdDeviation="2.5"/>
<feComposite in2="hardAlpha" operator="arithmetic" k2="-1" k3="1"/>
<feColorMatrix type="matrix" values="0 0 0 0 0 0 0 0 0 0 0 0 0 0 0 0 0 0 0.1 0"/>
<feBlend mode="normal" in2="shape" result="effect2_innerShadow_9_22963"/>
</filter>
<clipPath id="clip0_9_22963">
<rect x="39.5986" y="7" width="60.9417" height="60.9417" rx="10.1569" transform="rotate(32.3378 39.5986 7)" fill="white"/>
</clipPath>
<clipPath id="clip1_9_22963">
<rect width="25.3924" height="38.0886" fill="white" transform="translate(48.5039 26.1621) rotate(32.3378)"/>
</clipPath>
</defs>
</svg>
