<svg width="176" height="509" viewBox="0 0 176 509" fill="none" xmlns="http://www.w3.org/2000/svg">
<g filter="url(#filter0_di_9_23156)">
<g clip-path="url(#clip0_9_23156)">
<rect x="33.002" y="392.11" width="60.9417" height="60.9417" rx="10.1569" transform="rotate(-47.7496 33.002 392.11)" fill="white"/>
<rect x="40.1758" y="391.766" width="50.7847" height="50.7847" rx="5.07847" transform="rotate(-47.7496 40.1758 391.766)" fill="#FFEED6"/>
<g clip-path="url(#clip1_9_23156)">
<path d="M83.6285 376.776L83.5169 376.734L72.5549 372.464C72.3377 372.382 72.1003 372.371 71.8764 372.432C71.6517 372.494 71.4518 372.625 71.3044 372.805C71.1569 372.986 71.0692 373.208 71.0533 373.441C71.0391 373.672 71.0988 373.903 71.2227 374.099L75.7579 382.063L68.0139 390.588L59.6524 386.838C59.4449 386.732 59.209 386.694 58.9786 386.73C58.7483 386.767 58.5354 386.875 58.3706 387.04C58.2054 387.204 58.0955 387.415 58.0561 387.644C58.0168 387.873 58.05 388.109 58.1511 388.318L63.4605 398.837L63.5122 398.942C64.2782 400.456 65.5148 401.679 67.036 402.429C68.5572 403.179 70.2808 403.414 71.9475 403.1L71.9665 403.097L72.0127 403.089L79.8888 401.568L83.8028 400.835L86.1822 400.389C86.4614 400.336 86.7158 400.194 86.9069 399.983C87.0979 399.773 87.2152 399.506 87.2409 399.223L87.4568 396.812L87.813 392.844L88.5755 384.812L88.5779 384.791C88.7343 383.099 88.336 381.402 87.4432 379.957C86.5503 378.511 85.2114 377.395 83.6286 376.778L83.6285 376.776Z" fill="#E24329"/>
<path d="M83.6283 376.776L83.5166 376.734C82.4492 378.538 81.7923 380.556 81.5929 382.643L80.5631 394.198C82.9836 393.743 85.4041 393.286 87.8243 392.829L88.5869 384.796L88.5899 384.774C88.7418 383.083 88.34 381.389 87.4449 379.946C86.5498 378.503 85.2101 377.391 83.6276 376.776L83.6283 376.776Z" fill="#FC6D26"/>
<path d="M79.8907 401.563L83.8021 400.834L86.1815 400.388C86.4607 400.335 86.7151 400.193 86.9062 399.983C87.0973 399.772 87.2145 399.506 87.2403 399.223L87.4561 396.811L87.8123 392.844C87.8123 392.844 84.4343 393.482 80.5503 394.213L79.8914 401.564L79.8907 401.563Z" fill="#FCA326"/>
<path d="M69.1515 396.35C67.0932 396.747 65.1481 397.594 63.4551 398.831L63.5068 398.937C64.2723 400.451 65.5094 401.677 67.0318 402.427C68.5541 403.178 70.2791 403.414 71.947 403.099L71.9661 403.095L72.0123 403.088L79.8884 401.567L80.5636 394.198L69.1515 396.35Z" fill="#FC6D26"/>
</g>
</g>
<rect x="34.0614" y="392.059" width="59.4417" height="59.4417" rx="9.40695" transform="rotate(-47.7496 34.0614 392.059)" stroke="#FFEED6" stroke-width="1.5"/>
</g>
<path d="M175 508H79.5569C66.302 508 55.5569 497.255 55.5569 484V416.098" stroke="#E7E7E7" stroke-width="2" stroke-linecap="round" stroke-linejoin="bevel"/>
<path d="M79.0908 35.4615H25.0008C11.7459 35.4615 1.00079 46.2067 1.00079 59.4615V436.597C1.00079 449.852 11.746 460.598 25.0008 460.598L31.5574 460.598C44.8123 460.598 55.5574 449.852 55.5574 436.598V416.098" stroke="#757575" stroke-width="2" stroke-linecap="round" stroke-linejoin="bevel"/>
<path d="M79.0908 35.4615H25.0012C11.7463 35.4615 1.00116 46.2067 1.00116 59.4615V436.597C1.00116 449.852 11.7463 460.598 25.0011 460.598L31.5574 460.598C44.8123 460.598 55.5574 449.852 55.5574 436.598V416.098" stroke="#E7E7E7" stroke-width="2" stroke-linecap="round" stroke-linejoin="bevel"/>
<g filter="url(#filter1_di_9_23156)">
<g clip-path="url(#clip2_9_23156)">
<rect x="94.5986" y="7" width="60.9417" height="60.9417" rx="10.1569" transform="rotate(32.3378 94.5986 7)" fill="white"/>
<rect x="96.1729" y="14.0073" width="50.7847" height="50.7847" rx="5.07847" transform="rotate(32.3378 96.1729 14.0073)" fill="#F8DFDD"/>
<g clip-path="url(#clip3_9_23156)">
<path d="M104.044 49.0441C105.9 46.1121 109.782 45.24 112.714 47.0963C115.646 48.9525 116.518 52.8343 114.662 55.7663C112.806 58.6984 108.924 59.5704 105.992 57.7142C103.06 55.8579 102.188 51.9762 104.044 49.0441Z" fill="#1ABCFE"/>
<path d="M86.7043 52.9399C88.5606 50.0079 92.4423 49.1357 95.3744 50.992L100.683 54.3531L97.3223 59.662C95.466 62.5941 91.5843 63.4662 88.6522 61.6099C85.7202 59.7536 84.8481 55.872 86.7043 52.9399Z" fill="#0ACF83"/>
<path d="M114.127 33.1172L107.405 43.7351L112.714 47.0962C115.646 48.9525 119.528 48.0804 121.384 45.1484C123.24 42.2163 122.368 38.3346 119.436 36.4783L114.127 33.1172Z" fill="#FF7262"/>
<path d="M100.149 31.704C98.2924 34.6361 99.1645 38.5178 102.097 40.3741L107.406 43.7351L114.128 33.1172L108.819 29.7562C105.887 27.8999 102.005 28.772 100.149 31.704Z" fill="#F24E1E"/>
<path d="M93.426 42.322C91.5697 45.254 92.4418 49.1357 95.3739 50.992L100.683 54.3531L107.405 43.7352L102.096 40.3741C99.164 38.5178 95.2823 39.39 93.426 42.322Z" fill="#A259FF"/>
</g>
</g>
<rect x="94.8311" y="8.03486" width="59.4417" height="59.4417" rx="9.40695" transform="rotate(32.3378 94.8311 8.03486)" stroke="#FFF4F3" stroke-width="1.5"/>
</g>
<defs>
<filter id="filter0_di_9_23156" x="19.002" y="333" width="110.085" height="110.085" filterUnits="userSpaceOnUse" color-interpolation-filters="sRGB">
<feFlood flood-opacity="0" result="BackgroundImageFix"/>
<feColorMatrix in="SourceAlpha" type="matrix" values="0 0 0 0 0 0 0 0 0 0 0 0 0 0 0 0 0 0 127 0" result="hardAlpha"/>
<feOffset dx="-2" dy="-2"/>
<feGaussianBlur stdDeviation="6"/>
<feComposite in2="hardAlpha" operator="out"/>
<feColorMatrix type="matrix" values="0 0 0 0 0 0 0 0 0 0 0 0 0 0 0 0 0 0 0.08 0"/>
<feBlend mode="normal" in2="BackgroundImageFix" result="effect1_dropShadow_9_23156"/>
<feBlend mode="normal" in="SourceGraphic" in2="effect1_dropShadow_9_23156" result="shape"/>
<feColorMatrix in="SourceAlpha" type="matrix" values="0 0 0 0 0 0 0 0 0 0 0 0 0 0 0 0 0 0 127 0" result="hardAlpha"/>
<feOffset dx="-2" dy="-2"/>
<feGaussianBlur stdDeviation="2.5"/>
<feComposite in2="hardAlpha" operator="arithmetic" k2="-1" k3="1"/>
<feColorMatrix type="matrix" values="0 0 0 0 0 0 0 0 0 0 0 0 0 0 0 0 0 0 0.1 0"/>
<feBlend mode="normal" in2="shape" result="effect2_innerShadow_9_23156"/>
</filter>
<filter id="filter1_di_9_23156" x="52" y="-3" width="108.089" height="108.088" filterUnits="userSpaceOnUse" color-interpolation-filters="sRGB">
<feFlood flood-opacity="0" result="BackgroundImageFix"/>
<feColorMatrix in="SourceAlpha" type="matrix" values="0 0 0 0 0 0 0 0 0 0 0 0 0 0 0 0 0 0 127 0" result="hardAlpha"/>
<feOffset dx="2" dy="2"/>
<feGaussianBlur stdDeviation="6"/>
<feComposite in2="hardAlpha" operator="out"/>
<feColorMatrix type="matrix" values="0 0 0 0 0 0 0 0 0 0 0 0 0 0 0 0 0 0 0.08 0"/>
<feBlend mode="normal" in2="BackgroundImageFix" result="effect1_dropShadow_9_23156"/>
<feBlend mode="normal" in="SourceGraphic" in2="effect1_dropShadow_9_23156" result="shape"/>
<feColorMatrix in="SourceAlpha" type="matrix" values="0 0 0 0 0 0 0 0 0 0 0 0 0 0 0 0 0 0 127 0" result="hardAlpha"/>
<feOffset dx="-2" dy="-2"/>
<feGaussianBlur stdDeviation="2.5"/>
<feComposite in2="hardAlpha" operator="arithmetic" k2="-1" k3="1"/>
<feColorMatrix type="matrix" values="0 0 0 0 0 0 0 0 0 0 0 0 0 0 0 0 0 0 0.1 0"/>
<feBlend mode="normal" in2="shape" result="effect2_innerShadow_9_23156"/>
</filter>
<clipPath id="clip0_9_23156">
<rect x="33.002" y="392.11" width="60.9417" height="60.9417" rx="10.1569" transform="rotate(-47.7496 33.002 392.11)" fill="white"/>
</clipPath>
<clipPath id="clip1_9_23156">
<rect width="30.9709" height="30.9709" fill="white" transform="translate(54 391) rotate(-47.7496)"/>
</clipPath>
<clipPath id="clip2_9_23156">
<rect x="94.5986" y="7" width="60.9417" height="60.9417" rx="10.1569" transform="rotate(32.3378 94.5986 7)" fill="white"/>
</clipPath>
<clipPath id="clip3_9_23156">
<rect width="25.3924" height="38.0886" fill="white" transform="translate(103.504 26.1621) rotate(32.3378)"/>
</clipPath>
</defs>
</svg>
