<svg width="177" height="509" viewBox="0 0 177 509" fill="none" xmlns="http://www.w3.org/2000/svg">
<g filter="url(#filter0_di_9_23174)">
<g clip-path="url(#clip0_9_23174)">
<rect width="50.7847" height="50.7847" rx="5.07847" transform="matrix(-0.672373 -0.740213 -0.740213 0.672373 135.913 391.766)" fill="#E0F4FF"/>
<g clip-path="url(#clip1_9_23174)">
<mask id="mask0_9_23174" style="mask-type:alpha" maskUnits="userSpaceOnUse" x="84" y="374" width="29" height="29">
<path fill-rule="evenodd" clip-rule="evenodd" d="M87.2039 394.532C86.8196 394.341 86.5204 393.997 86.3928 393.567L84.7398 388.006C84.5661 387.422 84.7427 386.789 85.1942 386.379L97.82 374.911C98.2715 374.501 98.9179 374.385 99.4829 374.614L104.86 376.793C105.405 377.013 105.776 377.514 105.838 378.086C105.847 378.167 105.85 378.25 105.846 378.334L105.816 391.882L111.197 392.883C111.698 392.977 112.061 393.414 112.06 393.923L112.059 395.813C112.058 396.437 111.522 396.925 110.901 396.866L105.806 396.387L105.795 401.504C105.794 402.128 105.257 402.615 104.636 402.556L102.755 402.376C102.248 402.327 101.847 401.924 101.802 401.417L101.321 395.965L87.8329 394.696C87.6092 394.685 87.3959 394.628 87.2039 394.532ZM100.04 381.465L100.879 390.962L91.506 389.217L100.04 381.465Z" fill="white"/>
</mask>
<g mask="url(#mask0_9_23174)">
<path d="M99.4805 374.617L104.863 376.796C105.486 377.048 105.882 377.666 105.849 378.338L105.806 401.516C105.805 402.139 105.268 402.626 104.647 402.567L102.765 402.387C102.258 402.338 101.857 401.934 101.812 401.427L99.5261 375.639C99.4494 374.774 98.4158 374.37 97.7729 374.954L97.8179 374.913C98.2692 374.503 98.9154 374.388 99.4805 374.617Z" fill="#0065A9"/>
<g filter="url(#filter1_d_9_23174)">
<path d="M84.7429 388.003L86.396 393.57C86.5874 394.214 87.1651 394.667 87.8364 394.7L110.912 396.878C111.533 396.936 112.069 396.448 112.069 395.825L112.07 393.934C112.07 393.424 111.707 392.987 111.206 392.893L85.756 388.147C84.9022 387.988 84.5992 386.92 85.2421 386.336L85.1972 386.377C84.7459 386.787 84.5693 387.419 84.7429 388.003Z" fill="#007ACC"/>
</g>
<g filter="url(#filter2_d_9_23174)">
<path d="M86.3958 393.57C86.5874 394.214 87.1652 394.667 87.8367 394.699C87.0094 394.66 86.6431 393.64 87.2562 393.083L104.296 377.605C104.909 377.048 105.889 377.51 105.849 378.338C105.882 377.666 105.486 377.048 104.863 376.795L99.4838 374.615C98.9185 374.385 98.272 374.501 97.8205 374.911L85.1946 386.379C84.7432 386.789 84.5667 387.422 84.7406 388.007L86.3958 393.57Z" fill="#1F9CF0"/>
</g>
<g style="mix-blend-mode:overlay" opacity="0.25">
<path fill-rule="evenodd" clip-rule="evenodd" d="M87.2146 394.544C86.8304 394.352 86.5311 394.008 86.4035 393.579L84.7505 388.018C84.5768 387.433 84.7534 386.801 85.2049 386.391L97.8308 374.922C98.2822 374.512 98.9287 374.397 99.4937 374.626L104.871 376.804C105.416 377.025 105.786 377.526 105.849 378.097C105.858 378.179 105.86 378.262 105.856 378.346L105.827 391.893L111.207 392.895C111.708 392.988 112.071 393.425 112.071 393.935L112.07 395.825C112.069 396.448 111.533 396.936 110.912 396.878L105.817 396.398L105.806 401.516C105.805 402.139 105.267 402.626 104.647 402.567L102.765 402.387C102.258 402.339 101.858 401.936 101.813 401.428L101.331 395.976L87.8437 394.707C87.62 394.697 87.4067 394.639 87.2146 394.544ZM100.05 381.477L100.889 390.974L91.5167 389.228L100.05 381.477Z" fill="url(#paint0_linear_9_23174)"/>
</g>
</g>
</g>
</g>
<rect x="-1.05944" y="-0.0508803" width="59.4417" height="59.4417" rx="9.40695" transform="matrix(-0.672373 -0.740213 -0.740213 0.672373 141.277 391.309)" stroke="#E0F4FF" stroke-width="1.5" shape-rendering="crispEdges"/>
</g>
<path d="M1.08887 508H96.532C109.787 508 120.532 497.255 120.532 484V416.098" stroke="#E7E7E7" stroke-width="2" stroke-linecap="round" stroke-linejoin="bevel"/>
<path d="M96.999 35.4615H151.088C164.343 35.4615 175.089 46.2067 175.089 59.4615V436.598C175.089 449.852 164.343 460.598 151.089 460.598L144.532 460.598C131.278 460.598 120.532 449.852 120.532 436.598V416.098" stroke="#757575" stroke-width="2" stroke-linecap="round" stroke-linejoin="bevel"/>
<path d="M96.999 35.4615H151.088C164.343 35.4615 175.089 46.2067 175.089 59.4615V436.598C175.089 449.852 164.343 460.598 151.089 460.598L144.532 460.598C131.278 460.598 120.532 449.852 120.532 436.598V416.098" stroke="#E7E7E7" stroke-width="2" stroke-linecap="round" stroke-linejoin="bevel"/>
<g filter="url(#filter3_di_9_23174)">
<g clip-path="url(#clip2_9_23174)">
<rect width="60.9417" height="60.9417" rx="10.1569" transform="matrix(-0.84491 0.534909 0.534909 0.84491 81.4902 7)" fill="white"/>
<rect width="50.7847" height="50.7847" rx="5.07847" transform="matrix(-0.84491 0.534909 0.534909 0.84491 79.916 14.0073)" fill="#DBE9FF"/>
<g clip-path="url(#clip3_9_23174)">
<path fill-rule="evenodd" clip-rule="evenodd" d="M77.7271 35.2114L80.3827 52.7765L74.2129 57.2211L73.1248 49.9251L72.9979 50.0165C72.867 54.5836 70.8641 58.9602 66.3618 62.8769L62.5869 57.6367C62.5869 57.6367 65.5543 55.2345 65.9824 52.0164L61.0814 55.5469L57.124 50.0534L62.6277 46.0887L65.8894 50.6165L66.0163 50.5251L65.0068 44.3748L69.1782 41.3698L72.4171 45.866L72.544 45.7746L71.6207 39.6103L77.7271 35.2114Z" fill="#146EF5"/>
</g>
</g>
<rect x="-0.2325" y="1.03486" width="59.4417" height="59.4417" rx="9.40695" transform="matrix(-0.84491 0.534909 0.534909 0.84491 80.5077 7.28486)" stroke="#DBE9FF" stroke-width="1.5"/>
</g>
<defs>
<filter id="filter0_di_9_23174" x="47.002" y="337" width="110.085" height="110.085" filterUnits="userSpaceOnUse" color-interpolation-filters="sRGB">
<feFlood flood-opacity="0" result="BackgroundImageFix"/>
<feColorMatrix in="SourceAlpha" type="matrix" values="0 0 0 0 0 0 0 0 0 0 0 0 0 0 0 0 0 0 127 0" result="hardAlpha"/>
<feOffset dx="2" dy="2"/>
<feGaussianBlur stdDeviation="6"/>
<feComposite in2="hardAlpha" operator="out"/>
<feColorMatrix type="matrix" values="0 0 0 0 0 0 0 0 0 0 0 0 0 0 0 0 0 0 0.08 0"/>
<feBlend mode="normal" in2="BackgroundImageFix" result="effect1_dropShadow_9_23174"/>
<feBlend mode="normal" in="SourceGraphic" in2="effect1_dropShadow_9_23174" result="shape"/>
<feColorMatrix in="SourceAlpha" type="matrix" values="0 0 0 0 0 0 0 0 0 0 0 0 0 0 0 0 0 0 127 0" result="hardAlpha"/>
<feOffset dx="2" dy="2"/>
<feGaussianBlur stdDeviation="2.5"/>
<feComposite in2="hardAlpha" operator="arithmetic" k2="-1" k3="1"/>
<feColorMatrix type="matrix" values="0 0 0 0 0 0 0 0 0 0 0 0 0 0 0 0 0 0 0.1 0"/>
<feBlend mode="normal" in2="shape" result="effect2_innerShadow_9_23174"/>
</filter>
<filter id="filter1_d_9_23174" x="76.3434" y="378.003" width="44.0602" height="27.213" filterUnits="userSpaceOnUse" color-interpolation-filters="sRGB">
<feFlood flood-opacity="0" result="BackgroundImageFix"/>
<feColorMatrix in="SourceAlpha" type="matrix" values="0 0 0 0 0 0 0 0 0 0 0 0 0 0 0 0 0 0 127 0" result="hardAlpha"/>
<feOffset/>
<feGaussianBlur stdDeviation="4.16667"/>
<feColorMatrix type="matrix" values="0 0 0 0 0 0 0 0 0 0 0 0 0 0 0 0 0 0 0.25 0"/>
<feBlend mode="overlay" in2="BackgroundImageFix" result="effect1_dropShadow_9_23174"/>
<feBlend mode="normal" in="SourceGraphic" in2="effect1_dropShadow_9_23174" result="shape"/>
</filter>
<filter id="filter2_d_9_23174" x="76.3415" y="366.165" width="37.8434" height="36.8679" filterUnits="userSpaceOnUse" color-interpolation-filters="sRGB">
<feFlood flood-opacity="0" result="BackgroundImageFix"/>
<feColorMatrix in="SourceAlpha" type="matrix" values="0 0 0 0 0 0 0 0 0 0 0 0 0 0 0 0 0 0 127 0" result="hardAlpha"/>
<feOffset/>
<feGaussianBlur stdDeviation="4.16667"/>
<feColorMatrix type="matrix" values="0 0 0 0 0 0 0 0 0 0 0 0 0 0 0 0 0 0 0.25 0"/>
<feBlend mode="overlay" in2="BackgroundImageFix" result="effect1_dropShadow_9_23174"/>
<feBlend mode="normal" in="SourceGraphic" in2="effect1_dropShadow_9_23174" result="shape"/>
</filter>
<filter id="filter3_di_9_23174" x="20" y="-3" width="108.089" height="108.088" filterUnits="userSpaceOnUse" color-interpolation-filters="sRGB">
<feFlood flood-opacity="0" result="BackgroundImageFix"/>
<feColorMatrix in="SourceAlpha" type="matrix" values="0 0 0 0 0 0 0 0 0 0 0 0 0 0 0 0 0 0 127 0" result="hardAlpha"/>
<feOffset dx="2" dy="2"/>
<feGaussianBlur stdDeviation="6"/>
<feComposite in2="hardAlpha" operator="out"/>
<feColorMatrix type="matrix" values="0 0 0 0 0 0 0 0 0 0 0 0 0 0 0 0 0 0 0.08 0"/>
<feBlend mode="normal" in2="BackgroundImageFix" result="effect1_dropShadow_9_23174"/>
<feBlend mode="normal" in="SourceGraphic" in2="effect1_dropShadow_9_23174" result="shape"/>
<feColorMatrix in="SourceAlpha" type="matrix" values="0 0 0 0 0 0 0 0 0 0 0 0 0 0 0 0 0 0 127 0" result="hardAlpha"/>
<feOffset dx="2" dy="2"/>
<feGaussianBlur stdDeviation="2.5"/>
<feComposite in2="hardAlpha" operator="arithmetic" k2="-1" k3="1"/>
<feColorMatrix type="matrix" values="0 0 0 0 0 0 0 0 0 0 0 0 0 0 0 0 0 0 0.1 0"/>
<feBlend mode="normal" in2="shape" result="effect2_innerShadow_9_23174"/>
</filter>
<linearGradient id="paint0_linear_9_23174" x1="109.404" y1="381.562" x2="90.705" y2="398.547" gradientUnits="userSpaceOnUse">
<stop stop-color="white"/>
<stop offset="1" stop-color="white" stop-opacity="0"/>
</linearGradient>
<clipPath id="clip0_9_23174">
<rect width="60.9417" height="60.9417" rx="10.1569" transform="matrix(-0.672373 -0.740213 -0.740213 0.672373 143.087 392.11)" fill="white"/>
</clipPath>
<clipPath id="clip1_9_23174">
<rect width="25.3924" height="25.3924" fill="white" transform="matrix(-0.672373 -0.740213 -0.740213 0.672373 117.979 390.904)"/>
</clipPath>
<clipPath id="clip2_9_23174">
<rect width="60.9417" height="60.9417" rx="10.1569" transform="matrix(-0.84491 0.534909 0.534909 0.84491 81.4902 7)" fill="white"/>
</clipPath>
<clipPath id="clip3_9_23174">
<rect width="25.3924" height="15.8044" fill="white" transform="translate(57.124 50.0534) rotate(-35.7683)"/>
</clipPath>
</defs>
</svg>
