<svg width="102" height="102" viewBox="0 0 102 102" fill="none" xmlns="http://www.w3.org/2000/svg">
<g filter="url(#filter0_di_9_23177)">
<g clip-path="url(#clip0_9_23177)">
<rect width="50.7847" height="50.7847" rx="5.07847" transform="matrix(-0.672373 -0.740213 -0.740213 0.672373 84.9131 50.7655)" fill="#E0F4FF"/>
<g clip-path="url(#clip1_9_23177)">
<mask id="mask0_9_23177" style="mask-type:alpha" maskUnits="userSpaceOnUse" x="33" y="33" width="29" height="29">
<path fill-rule="evenodd" clip-rule="evenodd" d="M36.2039 53.5323C35.8196 53.341 35.5204 52.9967 35.3928 52.5673L33.7398 47.0062C33.5661 46.4219 33.7427 45.7894 34.1942 45.3793L46.82 33.9107C47.2715 33.5006 47.9179 33.3853 48.4829 33.6142L53.8601 35.7925C54.405 36.0133 54.7756 36.5142 54.8381 37.0856C54.847 37.1672 54.8496 37.2503 54.8455 37.3342L54.8161 50.8815L60.1967 51.8834C60.6976 51.9767 61.0605 52.4138 61.0602 52.9233L61.0588 54.8134C61.0584 55.4366 60.5219 55.9247 59.9014 55.8663L54.8064 55.387L54.7953 60.5045C54.7939 61.1277 54.2567 61.615 53.6363 61.5557L51.7547 61.3759C51.2476 61.3274 50.8472 60.9242 50.8024 60.4167L50.3207 54.9649L36.8329 53.6959C36.6092 53.6853 36.3959 53.6279 36.2039 53.5323ZM49.0397 40.4653L49.8787 49.9621L40.506 48.2168L49.0397 40.4653Z" fill="white"/>
</mask>
<g mask="url(#mask0_9_23177)">
<path d="M48.4805 33.6168L53.863 35.7958C54.486 36.048 54.8816 36.6664 54.8493 37.3378L54.806 60.5157C54.8049 61.1392 54.2676 61.6264 53.6471 61.567L51.765 61.3865C51.2576 61.3379 50.857 60.9344 50.812 60.4268L48.5261 34.639C48.4494 33.7738 47.4158 33.37 46.7729 33.954L46.8179 33.9131C47.2692 33.5032 47.9154 33.388 48.4805 33.6168Z" fill="#0065A9"/>
<g filter="url(#filter1_d_9_23177)">
<path d="M33.7429 47.0034L35.396 52.57C35.5874 53.2143 36.1651 53.6673 36.8364 53.6996L59.9119 55.8776C60.5325 55.9362 61.0691 55.4481 61.0693 54.8247L61.0701 52.934C61.0703 52.4243 60.7071 51.9869 60.206 51.8935L34.756 47.1468C33.9022 46.9875 33.5992 45.92 34.2421 45.3361L34.1972 45.3769C33.7459 45.7868 33.5693 46.419 33.7429 47.0034Z" fill="#007ACC"/>
</g>
<g filter="url(#filter2_d_9_23177)">
<path d="M35.3958 52.5701C35.5874 53.2144 36.1652 53.6672 36.8367 53.6995C36.0094 53.6598 35.6431 52.6396 36.2562 52.0828L53.2956 36.605C53.9087 36.0481 54.889 36.5105 54.8493 37.3377C54.8815 36.6663 54.4861 36.0478 53.8631 35.7952L48.4838 33.6146C47.9185 33.3855 47.272 33.5005 46.8205 33.9106L34.1946 45.3793C33.7432 45.7894 33.5667 46.422 33.7406 47.0066L35.3958 52.5701Z" fill="#1F9CF0"/>
</g>
<g style="mix-blend-mode:overlay" opacity="0.25">
<path fill-rule="evenodd" clip-rule="evenodd" d="M36.2146 53.5438C35.8304 53.3525 35.5311 53.0082 35.4035 52.5788L33.7505 47.0177C33.5768 46.4333 33.7534 45.8009 34.2049 45.3908L46.8308 33.9221C47.2822 33.512 47.9287 33.3968 48.4937 33.6257L53.8709 35.804C54.4157 36.0247 54.7864 36.5256 54.8488 37.0971C54.8577 37.1787 54.8603 37.2618 54.8563 37.3457L54.8269 50.893L60.2074 51.8949C60.7083 51.9881 61.0712 52.4253 61.0709 52.9348L61.0696 54.8249C61.0691 55.4481 60.5326 55.9362 59.9121 55.8778L54.8171 55.3984L54.806 60.5159C54.8046 61.1392 54.2674 61.6264 53.647 61.5671L51.7655 61.3873C51.2583 61.3389 50.858 60.9357 50.8131 60.4282L50.3315 54.9764L36.8437 53.7074C36.62 53.6967 36.4067 53.6394 36.2146 53.5438ZM49.0504 40.4767L49.8895 49.9736L40.5167 48.2283L49.0504 40.4767Z" fill="url(#paint0_linear_9_23177)"/>
</g>
</g>
</g>
</g>
<rect x="-1.05944" y="-0.0508803" width="59.4417" height="59.4417" rx="9.40695" transform="matrix(-0.672373 -0.740213 -0.740213 0.672373 90.2775 50.3089)" stroke="#E0F4FF" stroke-width="1.5" shape-rendering="crispEdges"/>
</g>
<defs>
<filter id="filter0_di_9_23177" x="-3.99805" y="-4" width="110.085" height="110.085" filterUnits="userSpaceOnUse" color-interpolation-filters="sRGB">
<feFlood flood-opacity="0" result="BackgroundImageFix"/>
<feColorMatrix in="SourceAlpha" type="matrix" values="0 0 0 0 0 0 0 0 0 0 0 0 0 0 0 0 0 0 127 0" result="hardAlpha"/>
<feOffset dx="2" dy="2"/>
<feGaussianBlur stdDeviation="6"/>
<feComposite in2="hardAlpha" operator="out"/>
<feColorMatrix type="matrix" values="0 0 0 0 0 0 0 0 0 0 0 0 0 0 0 0 0 0 0.08 0"/>
<feBlend mode="normal" in2="BackgroundImageFix" result="effect1_dropShadow_9_23177"/>
<feBlend mode="normal" in="SourceGraphic" in2="effect1_dropShadow_9_23177" result="shape"/>
<feColorMatrix in="SourceAlpha" type="matrix" values="0 0 0 0 0 0 0 0 0 0 0 0 0 0 0 0 0 0 127 0" result="hardAlpha"/>
<feOffset dx="2" dy="2"/>
<feGaussianBlur stdDeviation="2.5"/>
<feComposite in2="hardAlpha" operator="arithmetic" k2="-1" k3="1"/>
<feColorMatrix type="matrix" values="0 0 0 0 0 0 0 0 0 0 0 0 0 0 0 0 0 0 0.1 0"/>
<feBlend mode="normal" in2="shape" result="effect2_innerShadow_9_23177"/>
</filter>
<filter id="filter1_d_9_23177" x="25.3434" y="37.0027" width="44.0602" height="27.213" filterUnits="userSpaceOnUse" color-interpolation-filters="sRGB">
<feFlood flood-opacity="0" result="BackgroundImageFix"/>
<feColorMatrix in="SourceAlpha" type="matrix" values="0 0 0 0 0 0 0 0 0 0 0 0 0 0 0 0 0 0 127 0" result="hardAlpha"/>
<feOffset/>
<feGaussianBlur stdDeviation="4.16667"/>
<feColorMatrix type="matrix" values="0 0 0 0 0 0 0 0 0 0 0 0 0 0 0 0 0 0 0.25 0"/>
<feBlend mode="overlay" in2="BackgroundImageFix" result="effect1_dropShadow_9_23177"/>
<feBlend mode="normal" in="SourceGraphic" in2="effect1_dropShadow_9_23177" result="shape"/>
</filter>
<filter id="filter2_d_9_23177" x="25.3415" y="25.165" width="37.8434" height="36.8679" filterUnits="userSpaceOnUse" color-interpolation-filters="sRGB">
<feFlood flood-opacity="0" result="BackgroundImageFix"/>
<feColorMatrix in="SourceAlpha" type="matrix" values="0 0 0 0 0 0 0 0 0 0 0 0 0 0 0 0 0 0 127 0" result="hardAlpha"/>
<feOffset/>
<feGaussianBlur stdDeviation="4.16667"/>
<feColorMatrix type="matrix" values="0 0 0 0 0 0 0 0 0 0 0 0 0 0 0 0 0 0 0.25 0"/>
<feBlend mode="overlay" in2="BackgroundImageFix" result="effect1_dropShadow_9_23177"/>
<feBlend mode="normal" in="SourceGraphic" in2="effect1_dropShadow_9_23177" result="shape"/>
</filter>
<linearGradient id="paint0_linear_9_23177" x1="58.4039" y1="40.5618" x2="39.705" y2="57.5469" gradientUnits="userSpaceOnUse">
<stop stop-color="white"/>
<stop offset="1" stop-color="white" stop-opacity="0"/>
</linearGradient>
<clipPath id="clip0_9_23177">
<rect width="60.9417" height="60.9417" rx="10.1569" transform="matrix(-0.672373 -0.740213 -0.740213 0.672373 92.0869 51.1098)" fill="white"/>
</clipPath>
<clipPath id="clip1_9_23177">
<rect width="25.3924" height="25.3924" fill="white" transform="matrix(-0.672373 -0.740213 -0.740213 0.672373 66.9785 49.9042)"/>
</clipPath>
</defs>
</svg>
